<svg xmlns="http://www.w3.org/2000/svg" width="360.328" height="258.276" viewBox="0 0 360.328 258.276">
  <g id="decoration" transform="translate(1 -228.811)" opacity="0.44">
    <g id="Group_3" data-name="Group 3" transform="translate(-0.003 461.908)" opacity="0.57">
      <path id="Path_1" data-name="Path 1" d="M54,316.751H92.1" transform="translate(-54 -313.501)" fill="none" stroke="#00e3ee" stroke-width="1"/>
      <g id="Path_2" data-name="Path 2" transform="translate(38.207)" fill="none">
        <path d="M3.989,0A3.755,3.755,0,0,1,7.978,3.466,3.755,3.755,0,0,1,3.989,6.932,3.755,3.755,0,0,1,0,3.466,3.755,3.755,0,0,1,3.989,0Z" stroke="none"/>
        <path d="M 3.988919496536255 1.000004291534424 C 2.340819358825684 1.000004291534424 0.9999995231628418 2.106224536895752 0.9999995231628418 3.465944528579712 C 0.9999995231628418 4.825664520263672 2.340819358825684 5.931884765625 3.988919496536255 5.931884765625 C 5.637019157409668 5.931884765625 6.977839469909668 4.825664520263672 6.977839469909668 3.465944528579712 C 6.977839469909668 2.106224536895752 5.637019157409668 1.000004291534424 3.988919496536255 1.000004291534424 M 3.988919496536255 4.291534423828125e-06 C 6.191939353942871 4.291534423828125e-06 7.977839469909668 1.551754474639893 7.977839469909668 3.465944528579712 C 7.977839469909668 5.380134582519531 6.191939353942871 6.931884765625 3.988919496536255 6.931884765625 C 1.785899639129639 6.931884765625 -4.76837158203125e-07 5.380134582519531 -4.76837158203125e-07 3.465944528579712 C -4.76837158203125e-07 1.551754474639893 1.785899639129639 4.291534423828125e-06 3.988919496536255 4.291534423828125e-06 Z" stroke="none" fill="#00e3ee"/>
      </g>
    </g>
    <g id="Group_5" data-name="Group 5" transform="translate(-1 229)">
      <g id="Group_1" data-name="Group 1" transform="translate(0 193.049)" opacity="0.76">
        <path id="Path_1-2" data-name="Path 1" d="M54,311.685H156.56l26.464-32.879h39.6" transform="translate(-54 -275.508)" fill="none" stroke="#00e3ee" stroke-width="1"/>
        <g id="Path_2-2" data-name="Path 2" transform="translate(167.844)" fill="none">
          <path d="M3,0A3,3,0,1,1,0,3,3,3,0,0,1,3,0Z" stroke="none"/>
          <path d="M 3 1 C 1.897200107574463 1 1 1.897200107574463 1 3 C 1 4.102799892425537 1.897200107574463 5 3 5 C 4.102799892425537 5 5 4.102799892425537 5 3 C 5 1.897200107574463 4.102799892425537 1 3 1 M 3 0 C 4.65684986114502 0 6 1.34315013885498 6 3 C 6 4.65684986114502 4.65684986114502 6 3 6 C 1.34315013885498 6 0 4.65684986114502 0 3 C 0 1.34315013885498 1.34315013885498 0 3 0 Z" stroke="none" fill="#00e3ee"/>
        </g>
      </g>
      <path id="Path_6" data-name="Path 6" d="M1.994,0A1.878,1.878,0,0,1,3.989,1.733,1.878,1.878,0,0,1,1.994,3.466,1.878,1.878,0,0,1,0,1.733,1.878,1.878,0,0,1,1.994,0Z" transform="translate(253.606 182.829)" fill="#00e3ee" opacity="0.8"/>
      <path id="Path_7" data-name="Path 7" d="M1.994,0A1.878,1.878,0,0,1,3.989,1.733,1.878,1.878,0,0,1,1.994,3.466,1.878,1.878,0,0,1,0,1.733,1.878,1.878,0,0,1,1.994,0Z" transform="translate(253.606 182.829)" fill="#00e3ee" opacity="0.8"/>
      <g id="Path_8" data-name="Path 8" transform="translate(182.802 120.442)" fill="none" opacity="0.8">
        <path d="M1.994,0A1.878,1.878,0,0,1,3.989,1.733,1.878,1.878,0,0,1,1.994,3.466,1.878,1.878,0,0,1,0,1.733,1.878,1.878,0,0,1,1.994,0Z" stroke="none"/>
        <path d="M 1.994459748268127 1.000002145767212 C 1.45540976524353 1.000002145767212 0.9999997615814209 1.335662364959717 0.9999997615814209 1.732972264289856 C 0.9999997615814209 2.130282402038574 1.45540976524353 2.4659423828125 1.994459748268127 2.4659423828125 C 2.533509731292725 2.4659423828125 2.988919734954834 2.130282402038574 2.988919734954834 1.732972264289856 C 2.988919734954834 1.335662364959717 2.533509731292725 1.000002145767212 1.994459748268127 1.000002145767212 M 1.994459748268127 2.145767211914063e-06 C 3.095969676971436 2.145767211914063e-06 3.988919734954834 0.7758822441101074 3.988919734954834 1.732972264289856 C 3.988919734954834 2.690062284469604 3.095969676971436 3.4659423828125 1.994459748268127 3.4659423828125 C 0.8929498195648193 3.4659423828125 -2.384185791015625e-07 2.690062284469604 -2.384185791015625e-07 1.732972264289856 C -2.384185791015625e-07 0.7758822441101074 0.8929498195648193 2.145767211914063e-06 1.994459748268127 2.145767211914063e-06 Z" stroke="none" fill="#00e3ee"/>
      </g>
      <g id="Group_4" data-name="Group 4" transform="translate(185.442)">
        <path id="Path_3" data-name="Path 3" d="M413.661,229,291.76,334.919l121.9,105.919" transform="translate(-239.104 -229)" fill="none" stroke="#00e3ee" stroke-width="0.5"/>
        <path id="Path_4" data-name="Path 4" d="M413.861,496.394H363.894" transform="translate(-239.304 -264.701)" fill="none" stroke="#00e3ee" stroke-width="2"/>
        <path id="Path_5" data-name="Path 5" d="M363.548,515.364,309.039,468l-70.082-60.894" transform="translate(-238.957 -283.973)" fill="none" stroke="#00e3ee" stroke-width="0.5" opacity="0.8"/>
        <path id="Path_9" data-name="Path 9" d="M413.586,506.446,264.405,376.824" transform="translate(-239.028 -248.737)" fill="none" stroke="#00e3ee" stroke-width="1" opacity="0.16"/>
      </g>
    </g>
  </g>
</svg>
