<svg xmlns="http://www.w3.org/2000/svg" width="20.695" height="14.787" viewBox="0 0 20.695 14.787">
  <path id="icon-money" d="M18.711,2.25H.985A.985.985,0,0,0,0,3.235V15.052a.985.985,0,0,0,.985.985H18.711a.985.985,0,0,0,.985-.985V3.235A.985.985,0,0,0,18.711,2.25ZM12.8,10.867a.246.246,0,0,1-.246.246H9.109a.246.246,0,0,1-.246-.246v-.492a.246.246,0,0,1,.246-.246h3.447a.246.246,0,0,1,.246.246Zm4.924,0a.246.246,0,0,1-.246.246H15.018a.246.246,0,0,1-.246-.246v-.492a.246.246,0,0,1,.246-.246H17.48a.246.246,0,0,1,.246.246Zm0-2.954a.246.246,0,0,1-.246.246H9.109a.246.246,0,0,1-.246-.246V7.42a.246.246,0,0,1,.246-.246H17.48a.246.246,0,0,1,.246.246Z" transform="translate(0.5 -1.75)" fill="none" stroke="#00e3ee" stroke-width="1"/>
</svg>
